<mxfile host="app.diagrams.net" agent="Mozilla/5.0 (Windows NT 10.0; Win64; x64) AppleWebKit/537.36 (KHTML, like Gecko) Chrome/130.0.0.0 Safari/537.36" version="24.8.6">
  <diagram name="Page-1" id="r5hVRslawZsMWMXb4wWY">
    <mxGraphModel dx="2206" dy="2420" grid="1" gridSize="10" guides="1" tooltips="1" connect="1" arrows="1" fold="1" page="1" pageScale="1" pageWidth="850" pageHeight="1100" math="0" shadow="0">
      <root>
        <mxCell id="0" />
        <mxCell id="1" parent="0" />
        <mxCell id="cowbU3c1tZKaxY06-JKs-1" value="&lt;h1 style=&quot;margin-top: 0px;&quot;&gt;Step 1: Automated Rule Extraction and Initial Translation&lt;/h1&gt;&lt;p&gt;&lt;span style=&quot;background-color: initial;&quot;&gt;Automatically process raw building code text using &lt;/span&gt;&lt;strong style=&quot;background-color: initial;&quot;&gt;Natural Language Processing (NLP)&lt;/strong&gt;&lt;span style=&quot;background-color: initial;&quot;&gt; to extract semantics and convert them into a structured RDF-based representation of rules.&lt;/span&gt;&lt;/p&gt;" style="text;html=1;whiteSpace=wrap;overflow=hidden;rounded=0;" vertex="1" parent="1">
          <mxGeometry x="40" y="50" width="700" height="130" as="geometry" />
        </mxCell>
        <mxCell id="cowbU3c1tZKaxY06-JKs-2" value="Focus on accurately identifying rule constructs such as conditions, thresholds, and dependencies" style="rounded=0;whiteSpace=wrap;html=1;align=left;" vertex="1" parent="1">
          <mxGeometry x="740" y="60" width="180" height="85" as="geometry" />
        </mxCell>
        <mxCell id="cowbU3c1tZKaxY06-JKs-3" value="&lt;h1 style=&quot;margin-top: 0px;&quot;&gt;Step 2: Quality Assurance by Fire Expert&lt;/h1&gt;&lt;p&gt;The fire expert reviews the RDF-based rule translation using the interactive HTML interface.&lt;/p&gt;&lt;p&gt;Allows the expert to mark the rule as appropriate, for further use. Please note that the IFC-based mapping is happening in a later stage, meaning the Fire expert can concentrate on evaluating if the NLP-system has correctly mapped the rule logic.&amp;nbsp;&amp;nbsp;&lt;/p&gt;" style="text;html=1;whiteSpace=wrap;overflow=hidden;rounded=0;" vertex="1" parent="1">
          <mxGeometry x="40" y="250" width="700" height="120" as="geometry" />
        </mxCell>
        <mxCell id="cowbU3c1tZKaxY06-JKs-5" value="If satisfied, the rule proceeds to &lt;strong&gt;Step 5&lt;/strong&gt; for IFC mapping and IDS generation.&lt;div&gt;If &lt;strong&gt;not satisfied&lt;/strong&gt;, the expert prompts the system to proceed to the &lt;strong&gt;manual RASE method&lt;/strong&gt; in Step 3.&lt;/div&gt;" style="rounded=0;whiteSpace=wrap;html=1;align=left;" vertex="1" parent="1">
          <mxGeometry x="740" y="250" width="180" height="120" as="geometry" />
        </mxCell>
        <mxCell id="cowbU3c1tZKaxY06-JKs-6" value="&lt;h1 style=&quot;margin-top: 0px;&quot;&gt;Step 3:&amp;nbsp;&lt;span style=&quot;background-color: initial;&quot;&gt;Manual RASE-Based Rule Structuring&lt;/span&gt;&lt;/h1&gt;&lt;h1 style=&quot;margin-top: 0px;&quot;&gt;&lt;span style=&quot;background-color: initial; font-size: 12px; font-weight: normal;&quot;&gt;Apply the &lt;/span&gt;&lt;strong style=&quot;background-color: initial; font-size: 12px;&quot;&gt;RASE method&lt;/strong&gt;&lt;span style=&quot;background-color: initial; font-size: 12px; font-weight: normal;&quot;&gt; (Requirement, Applicability, Selection, Exception) for a manual map to&lt;/span&gt;&lt;span style=&quot;background-color: initial; font-size: 12px; font-weight: normal;&quot;&gt;&amp;nbsp;machine-readable format&lt;/span&gt;&lt;span style=&quot;background-color: initial; font-size: 12px; font-weight: normal;&quot;&gt;.&lt;/span&gt;&lt;/h1&gt;&lt;div&gt;&lt;span style=&quot;background-color: initial;&quot;&gt;The fire expert reviews the&amp;nbsp;&lt;/span&gt;HTML interface incorporating the manually structured RASE constructs, it includes all original rule text and highlights for comparison.&lt;span style=&quot;background-color: initial; font-size: 12px; font-weight: normal;&quot;&gt;&lt;/span&gt;&lt;/div&gt;&lt;div&gt;.&lt;/div&gt;" style="text;html=1;whiteSpace=wrap;overflow=hidden;rounded=0;" vertex="1" parent="1">
          <mxGeometry x="40" y="440" width="700" height="150" as="geometry" />
        </mxCell>
        <mxCell id="cowbU3c1tZKaxY06-JKs-7" value="If satisfied, the rule proceeds to &lt;strong&gt;Step 5&lt;/strong&gt; for IFC mapping and SHAQL generation.&lt;div&gt;If &lt;strong&gt;not satisfied&lt;/strong&gt;, the expert prompts the system to mark the rule as Undecided&lt;/div&gt;" style="rounded=0;whiteSpace=wrap;html=1;align=left;" vertex="1" parent="1">
          <mxGeometry x="740" y="440" width="180" height="120" as="geometry" />
        </mxCell>
        <mxCell id="cowbU3c1tZKaxY06-JKs-8" value="&lt;h1 style=&quot;margin-top: 0px;&quot;&gt;Step 5:&amp;nbsp;&lt;span style=&quot;background-color: initial;&quot;&gt;IFC-Based Mapping&lt;/span&gt;&lt;/h1&gt;&lt;h1 style=&quot;margin-top: 0px;&quot;&gt;&lt;span style=&quot;font-size: 12px; font-weight: 400;&quot;&gt;Link the structured rule constructs (RDF or RASE) to IFC 4.3 entities, attributes, and relationships.&lt;/span&gt;&lt;/h1&gt;&lt;div&gt;.&lt;/div&gt;" style="text;html=1;whiteSpace=wrap;overflow=hidden;rounded=0;" vertex="1" parent="1">
          <mxGeometry x="40" y="780" width="700" height="150" as="geometry" />
        </mxCell>
        <mxCell id="cowbU3c1tZKaxY06-JKs-9" value="Allow experts to specify additional details, such as applicable IFC property sets (e.g., Pset_WallCommon).Where direct IFC mappings are not feasible, provide fallback options for adding custom property definitions or annotations." style="rounded=0;whiteSpace=wrap;html=1;align=left;" vertex="1" parent="1">
          <mxGeometry x="740" y="780" width="180" height="120" as="geometry" />
        </mxCell>
        <mxCell id="cowbU3c1tZKaxY06-JKs-10" value="&lt;h1 style=&quot;margin-top: 0px;&quot;&gt;Step 4: RASE-SHAQL&lt;/h1&gt;&lt;h1 style=&quot;margin-top: 0px;&quot;&gt;&lt;span style=&quot;font-size: 12px; font-weight: 400;&quot;&gt;Link the structured rule constructs (RASE to RDF) to&amp;nbsp;&lt;/span&gt;&lt;span style=&quot;background-color: initial; font-size: 12px; font-weight: normal;&quot;&gt;conditions, thresholds, and dependencies&lt;/span&gt;&lt;/h1&gt;&lt;div&gt;.&lt;/div&gt;" style="text;html=1;whiteSpace=wrap;overflow=hidden;rounded=0;" vertex="1" parent="1">
          <mxGeometry x="40" y="610" width="700" height="150" as="geometry" />
        </mxCell>
        <mxCell id="cowbU3c1tZKaxY06-JKs-11" value="Allow experts to specify additional details, such as applicable IFC property sets (e.g., Pset_WallCommon).Where direct IFC mappings are not feasible, provide fallback options for adding custom property definitions or annotations." style="rounded=0;whiteSpace=wrap;html=1;align=left;" vertex="1" parent="1">
          <mxGeometry x="740" y="610" width="180" height="120" as="geometry" />
        </mxCell>
        <mxCell id="cowbU3c1tZKaxY06-JKs-12" value="&lt;h1 style=&quot;margin-top: 0px;&quot;&gt;Step 6: Graph update SHAQL-merge&lt;/h1&gt;&lt;p&gt;The RDF-based rules that have been accepted in Step 2 is combined with the rules from Step 5 and merged into a combined graph - refactoring may occur or it can be automatic based on principles of mapping&lt;/p&gt;" style="text;html=1;whiteSpace=wrap;overflow=hidden;rounded=0;" vertex="1" parent="1">
          <mxGeometry x="40" y="950" width="700" height="120" as="geometry" />
        </mxCell>
        <mxCell id="cowbU3c1tZKaxY06-JKs-13" value="Allow the expert to review and refine IFC mappings to ensure alignment with both the rule intent and the IFC model schema" style="rounded=0;whiteSpace=wrap;html=1;align=left;" vertex="1" parent="1">
          <mxGeometry x="740" y="950" width="180" height="120" as="geometry" />
        </mxCell>
        <mxCell id="cowbU3c1tZKaxY06-JKs-14" value="&lt;h1 style=&quot;margin-top: 0px;&quot;&gt;Step 7: Quality Assurance by BIM Expert&lt;/h1&gt;&lt;p&gt;The BIM expert reviews the RDF-based rule translation using the interactive HTML interface.&lt;/p&gt;&lt;p&gt;Allowing the expert to assign IFC-based concepts to rule constructs (e.g., mapping &quot;Exterior Wall&quot; to &lt;code&gt;IfcWall&lt;/code&gt; with &lt;code&gt;Pset_WallCommon.IsExternal(true)&lt;/code&gt;)&lt;/p&gt;" style="text;html=1;whiteSpace=wrap;overflow=hidden;rounded=0;" vertex="1" parent="1">
          <mxGeometry x="40" y="1110" width="700" height="120" as="geometry" />
        </mxCell>
        <mxCell id="cowbU3c1tZKaxY06-JKs-15" value="Allow the expert to review and refine IFC mappings to ensure alignment with both the rule intent and the IFC model schema, This process also helps to simplify/harmonize the ontology relying on IFC" style="rounded=0;whiteSpace=wrap;html=1;align=left;" vertex="1" parent="1">
          <mxGeometry x="740" y="1110" width="180" height="120" as="geometry" />
        </mxCell>
        <mxCell id="cowbU3c1tZKaxY06-JKs-16" value="&lt;h1 style=&quot;margin-top: 0px;&quot;&gt;Step 8: BSDD Update&lt;/h1&gt;&lt;p&gt;The FireBIM rule book on BSDD is updated. Based on the accepted RDF graph in Step 8. This step can only be done by selected FireBIM admin users who have the authority to update the BSDD.&amp;nbsp;&lt;br&gt;&amp;nbsp;&amp;nbsp;&lt;/p&gt;" style="text;html=1;whiteSpace=wrap;overflow=hidden;rounded=0;" vertex="1" parent="1">
          <mxGeometry x="40" y="1280" width="700" height="120" as="geometry" />
        </mxCell>
        <mxCell id="cowbU3c1tZKaxY06-JKs-17" value="The updating process on BSDD has to further developed as it needs to secure updates to existing fire codes, inclusion of new codes and staging of BSDD in reliable ways for future use." style="rounded=0;whiteSpace=wrap;html=1;align=left;" vertex="1" parent="1">
          <mxGeometry x="740" y="1280" width="180" height="120" as="geometry" />
        </mxCell>
        <mxCell id="cowbU3c1tZKaxY06-JKs-18" value="&lt;h1 style=&quot;margin-top: 0px;&quot;&gt;&lt;span style=&quot;background-color: initial;&quot;&gt;IDS Generation system&lt;/span&gt;&lt;/h1&gt;&lt;h1 style=&quot;margin-top: 0px;&quot;&gt;&lt;span style=&quot;background-color: initial; font-size: 12px; font-weight: normal;&quot;&gt;The FireBIM can g&lt;/span&gt;&lt;span style=&quot;background-color: initial; font-size: 12px; font-weight: normal;&quot;&gt;enerate IDS Specifications&amp;nbsp;&lt;/span&gt;&lt;span style=&quot;background-color: initial; font-size: 12px; font-weight: normal;&quot;&gt;for each rule, detailing the required data from the IFC model to validate compliance&lt;/span&gt;&lt;/h1&gt;" style="text;html=1;whiteSpace=wrap;overflow=hidden;rounded=0;" vertex="1" parent="1">
          <mxGeometry x="40" y="1560" width="700" height="120" as="geometry" />
        </mxCell>
        <mxCell id="cowbU3c1tZKaxY06-JKs-19" value="This FireBIM IDS system are using the BSDD rule book as its primary source of truth, however it needs additional information from a central repository of how implicit checks need to be performed" style="rounded=0;whiteSpace=wrap;html=1;align=left;" vertex="1" parent="1">
          <mxGeometry x="740" y="1560" width="180" height="120" as="geometry" />
        </mxCell>
        <mxCell id="cowbU3c1tZKaxY06-JKs-20" value="&lt;h1 style=&quot;margin-top: 0px;&quot;&gt;Extract EIR based on IFC 4.3&lt;/h1&gt;&lt;div&gt;Ability to&amp;nbsp; extract mappings from IFC entities, attributes, and relationships (e.g., &lt;code&gt;IfcWall.Height&lt;/code&gt;). FOR EACH rule&lt;/div&gt;&lt;p&gt;&amp;nbsp;&amp;nbsp;&lt;/p&gt;" style="text;html=1;whiteSpace=wrap;overflow=hidden;rounded=0;" vertex="1" parent="1">
          <mxGeometry x="40" y="1670" width="700" height="120" as="geometry" />
        </mxCell>
        <mxCell id="cowbU3c1tZKaxY06-JKs-21" value="FireBIM rule book contains:&lt;br&gt;?&lt;br&gt;&lt;div&gt;&lt;br&gt;&lt;/div&gt;" style="rounded=0;whiteSpace=wrap;html=1;align=left;" vertex="1" parent="1">
          <mxGeometry x="40" y="1380" width="180" height="120" as="geometry" />
        </mxCell>
        <UserObject label="https://bsdd.ontotext.com/README.html&#xa;https://linkedbuildingdata.net/ldac2023/files/papers/papers/LDAC2023_paper_1547.pdf" link="chrome-extension://efaidnbmnnnibpcajpcglclefindmkaj/https://linkedbuildingdata.net/ldac2023/files/papers/papers/LDAC2023_paper_1547.pdf" id="cowbU3c1tZKaxY06-JKs-22">
          <mxCell style="text;whiteSpace=wrap;" vertex="1" parent="1">
            <mxGeometry x="460" y="1459" width="560" height="50" as="geometry" />
          </mxCell>
        </UserObject>
        <mxCell id="cowbU3c1tZKaxY06-JKs-23" value="&lt;h1 style=&quot;margin-top: 0px;&quot;&gt;Fire Expert-Driven Refinement&lt;/h1&gt;&lt;div&gt;Ability to&amp;nbsp;&lt;span style=&quot;background-color: initial;&quot;&gt;adjust IDS content based on project-specific needs (e.g., exceptions, building types).&lt;/span&gt;&lt;br&gt;&lt;/div&gt;&lt;div&gt;User-defined filter the IDS to limit scope or focus on certain checks (e.g., &quot;only external walls&quot;)&lt;span style=&quot;background-color: initial;&quot;&gt;&lt;/span&gt;&lt;/div&gt;" style="text;html=1;whiteSpace=wrap;overflow=hidden;rounded=0;" vertex="1" parent="1">
          <mxGeometry x="40" y="1760" width="700" height="120" as="geometry" />
        </mxCell>
        <mxCell id="cowbU3c1tZKaxY06-JKs-24" value="&lt;h1 style=&quot;margin-top: 0px;&quot;&gt;Model-Driven Refinement&lt;/h1&gt;&lt;div&gt;Ability to&amp;nbsp;&lt;span style=&quot;background-color: initial;&quot;&gt;adjust IDS content based on model content (e.g. use address to filter for country)&lt;/span&gt;&lt;br&gt;&lt;/div&gt;&lt;div&gt;Model-defined filter the IDS to limit scope or focus on certain checks (e.g., &quot;only external walls&quot;)&lt;span style=&quot;background-color: initial;&quot;&gt;&lt;/span&gt;&lt;/div&gt;" style="text;html=1;whiteSpace=wrap;overflow=hidden;rounded=0;" vertex="1" parent="1">
          <mxGeometry x="40" y="1870" width="700" height="120" as="geometry" />
        </mxCell>
        <mxCell id="cowbU3c1tZKaxY06-JKs-25" value="&lt;h1 style=&quot;margin-top: 0px;&quot;&gt;IDS requirement specifying the implicit method&lt;/h1&gt;&lt;div&gt;Ability to&amp;nbsp;&lt;span style=&quot;background-color: initial;&quot;&gt;adjust IDS content to retrieve &quot;manual&quot; input derived from expert knowledge&lt;/span&gt;&lt;br&gt;&lt;/div&gt;&lt;div&gt;Ability to adjust IDS content to retrieve &quot;algorithmic&quot; input derived from model and code analyis&lt;/div&gt;" style="text;html=1;whiteSpace=wrap;overflow=hidden;rounded=0;" vertex="1" parent="1">
          <mxGeometry x="40" y="1980" width="700" height="120" as="geometry" />
        </mxCell>
        <mxCell id="cowbU3c1tZKaxY06-JKs-39" style="edgeStyle=orthogonalEdgeStyle;rounded=0;orthogonalLoop=1;jettySize=auto;html=1;exitX=1;exitY=0.5;exitDx=0;exitDy=0;entryX=0;entryY=0.5;entryDx=0;entryDy=0;" edge="1" parent="1" source="cowbU3c1tZKaxY06-JKs-27" target="cowbU3c1tZKaxY06-JKs-34">
          <mxGeometry relative="1" as="geometry" />
        </mxCell>
        <mxCell id="cowbU3c1tZKaxY06-JKs-27" value="NLP2RDF" style="rounded=1;whiteSpace=wrap;html=1;strokeWidth=3;" vertex="1" parent="1">
          <mxGeometry x="1230" y="160" width="120" height="60" as="geometry" />
        </mxCell>
        <mxCell id="cowbU3c1tZKaxY06-JKs-86" style="edgeStyle=orthogonalEdgeStyle;rounded=0;orthogonalLoop=1;jettySize=auto;html=1;" edge="1" parent="1" source="cowbU3c1tZKaxY06-JKs-28">
          <mxGeometry relative="1" as="geometry">
            <mxPoint x="1472.5" y="250" as="targetPoint" />
          </mxGeometry>
        </mxCell>
        <mxCell id="cowbU3c1tZKaxY06-JKs-28" value="Fire Expert" style="shape=umlActor;verticalLabelPosition=bottom;verticalAlign=top;html=1;outlineConnect=0;" vertex="1" parent="1">
          <mxGeometry x="1457.5" y="270" width="30" height="60" as="geometry" />
        </mxCell>
        <mxCell id="cowbU3c1tZKaxY06-JKs-71" style="edgeStyle=orthogonalEdgeStyle;rounded=0;orthogonalLoop=1;jettySize=auto;html=1;exitX=1;exitY=0.5;exitDx=0;exitDy=0;entryX=0;entryY=0.5;entryDx=0;entryDy=0;" edge="1" parent="1" source="cowbU3c1tZKaxY06-JKs-34" target="cowbU3c1tZKaxY06-JKs-66">
          <mxGeometry relative="1" as="geometry" />
        </mxCell>
        <mxCell id="cowbU3c1tZKaxY06-JKs-34" value="" style="rounded=0;whiteSpace=wrap;html=1;strokeWidth=3;" vertex="1" parent="1">
          <mxGeometry x="1402.5" y="135" width="145" height="110" as="geometry" />
        </mxCell>
        <mxCell id="cowbU3c1tZKaxY06-JKs-38" style="edgeStyle=orthogonalEdgeStyle;rounded=0;orthogonalLoop=1;jettySize=auto;html=1;entryX=0;entryY=0.5;entryDx=0;entryDy=0;" edge="1" parent="1" source="cowbU3c1tZKaxY06-JKs-37" target="cowbU3c1tZKaxY06-JKs-27">
          <mxGeometry relative="1" as="geometry" />
        </mxCell>
        <mxCell id="cowbU3c1tZKaxY06-JKs-37" value="" style="sketch=0;outlineConnect=0;fontColor=#232F3E;gradientColor=none;fillColor=#232F3D;strokeColor=none;dashed=0;verticalLabelPosition=bottom;verticalAlign=top;align=center;html=1;fontSize=12;fontStyle=0;aspect=fixed;pointerEvents=1;shape=mxgraph.aws4.document;strokeWidth=1;" vertex="1" parent="1">
          <mxGeometry x="1110" y="151" width="57" height="78" as="geometry" />
        </mxCell>
        <mxCell id="cowbU3c1tZKaxY06-JKs-42" value="" style="sketch=0;outlineConnect=0;fontColor=#232F3E;gradientColor=none;fillColor=#232F3D;strokeColor=none;dashed=0;verticalLabelPosition=bottom;verticalAlign=top;align=center;html=1;fontSize=12;fontStyle=0;aspect=fixed;pointerEvents=1;shape=mxgraph.aws4.document;strokeWidth=1;" vertex="1" parent="1">
          <mxGeometry x="1415.12" y="155" width="42.38" height="58" as="geometry" />
        </mxCell>
        <mxCell id="cowbU3c1tZKaxY06-JKs-44" value="original" style="text;html=1;align=center;verticalAlign=middle;whiteSpace=wrap;rounded=0;" vertex="1" parent="1">
          <mxGeometry x="1406.31" y="213" width="60" height="30" as="geometry" />
        </mxCell>
        <mxCell id="cowbU3c1tZKaxY06-JKs-45" value="RDF" style="text;html=1;align=center;verticalAlign=middle;whiteSpace=wrap;rounded=0;" vertex="1" parent="1">
          <mxGeometry x="1487.5" y="215" width="60" height="30" as="geometry" />
        </mxCell>
        <mxCell id="cowbU3c1tZKaxY06-JKs-46" value="" style="endArrow=none;dashed=1;html=1;rounded=0;exitX=0.5;exitY=1;exitDx=0;exitDy=0;entryX=0.5;entryY=0;entryDx=0;entryDy=0;" edge="1" parent="1" source="cowbU3c1tZKaxY06-JKs-34" target="cowbU3c1tZKaxY06-JKs-34">
          <mxGeometry width="50" height="50" relative="1" as="geometry">
            <mxPoint x="1427.5" y="185" as="sourcePoint" />
            <mxPoint x="1547.5" y="285" as="targetPoint" />
          </mxGeometry>
        </mxCell>
        <mxCell id="cowbU3c1tZKaxY06-JKs-102" style="edgeStyle=orthogonalEdgeStyle;rounded=0;orthogonalLoop=1;jettySize=auto;html=1;exitX=0;exitY=0.5;exitDx=0;exitDy=0;entryX=1;entryY=0.5;entryDx=0;entryDy=0;" edge="1" parent="1" source="cowbU3c1tZKaxY06-JKs-48" target="cowbU3c1tZKaxY06-JKs-89">
          <mxGeometry relative="1" as="geometry" />
        </mxCell>
        <mxCell id="cowbU3c1tZKaxY06-JKs-48" value="" style="rounded=0;whiteSpace=wrap;html=1;strokeWidth=3;" vertex="1" parent="1">
          <mxGeometry x="1620" y="390" width="145" height="110" as="geometry" />
        </mxCell>
        <mxCell id="cowbU3c1tZKaxY06-JKs-51" value="RDF" style="text;html=1;align=center;verticalAlign=middle;whiteSpace=wrap;rounded=0;" vertex="1" parent="1">
          <mxGeometry x="1623.81" y="468" width="60" height="30" as="geometry" />
        </mxCell>
        <mxCell id="cowbU3c1tZKaxY06-JKs-52" value="IFC" style="text;html=1;align=center;verticalAlign=middle;whiteSpace=wrap;rounded=0;" vertex="1" parent="1">
          <mxGeometry x="1705" y="470" width="60" height="30" as="geometry" />
        </mxCell>
        <mxCell id="cowbU3c1tZKaxY06-JKs-53" value="" style="endArrow=none;dashed=1;html=1;rounded=0;exitX=0.5;exitY=1;exitDx=0;exitDy=0;entryX=0.5;entryY=0;entryDx=0;entryDy=0;" edge="1" parent="1" source="cowbU3c1tZKaxY06-JKs-48" target="cowbU3c1tZKaxY06-JKs-48">
          <mxGeometry width="50" height="50" relative="1" as="geometry">
            <mxPoint x="1645" y="440" as="sourcePoint" />
            <mxPoint x="1765" y="540" as="targetPoint" />
          </mxGeometry>
        </mxCell>
        <mxCell id="cowbU3c1tZKaxY06-JKs-55" value="" style="verticalLabelPosition=bottom;html=1;verticalAlign=top;align=center;shape=mxgraph.azure.rdp_remoting_file;pointerEvents=1;gradientColor=none;fillColor=#232F3D;strokeColor=none;" vertex="1" parent="1">
          <mxGeometry x="1496.25" y="158" width="42.5" height="55" as="geometry" />
        </mxCell>
        <mxCell id="cowbU3c1tZKaxY06-JKs-56" value="" style="verticalLabelPosition=bottom;html=1;verticalAlign=top;align=center;shape=mxgraph.azure.rdp_remoting_file;pointerEvents=1;gradientColor=none;fillColor=#232F3D;strokeColor=none;" vertex="1" parent="1">
          <mxGeometry x="1632.56" y="410" width="42.5" height="55" as="geometry" />
        </mxCell>
        <mxCell id="cowbU3c1tZKaxY06-JKs-62" value="" style="group" vertex="1" connectable="0" parent="1">
          <mxGeometry x="1717.5" y="411.5" width="35" height="55" as="geometry" />
        </mxCell>
        <mxCell id="cowbU3c1tZKaxY06-JKs-59" value="" style="html=1;verticalLabelPosition=bottom;align=center;labelBackgroundColor=#ffffff;verticalAlign=top;strokeWidth=3;strokeColor=#232F3D;shadow=0;dashed=0;shape=mxgraph.ios7.icons.document;" vertex="1" parent="cowbU3c1tZKaxY06-JKs-62">
          <mxGeometry width="35" height="55" as="geometry" />
        </mxCell>
        <mxCell id="cowbU3c1tZKaxY06-JKs-61" value="" style="html=1;verticalLabelPosition=bottom;align=center;labelBackgroundColor=#ffffff;verticalAlign=top;strokeWidth=2;strokeColor=#232F3D;shadow=0;dashed=0;shape=mxgraph.ios7.icons.home;" vertex="1" parent="cowbU3c1tZKaxY06-JKs-62">
          <mxGeometry x="5.5" y="16.25" width="24" height="25.5" as="geometry" />
        </mxCell>
        <mxCell id="cowbU3c1tZKaxY06-JKs-69" style="edgeStyle=orthogonalEdgeStyle;rounded=0;orthogonalLoop=1;jettySize=auto;html=1;exitX=0.5;exitY=1;exitDx=0;exitDy=0;" edge="1" parent="1" source="cowbU3c1tZKaxY06-JKs-66">
          <mxGeometry relative="1" as="geometry">
            <mxPoint x="1692" y="390" as="targetPoint" />
          </mxGeometry>
        </mxCell>
        <mxCell id="cowbU3c1tZKaxY06-JKs-70" value="YES" style="edgeLabel;html=1;align=center;verticalAlign=middle;resizable=0;points=[];" vertex="1" connectable="0" parent="cowbU3c1tZKaxY06-JKs-69">
          <mxGeometry x="-0.2151" relative="1" as="geometry">
            <mxPoint as="offset" />
          </mxGeometry>
        </mxCell>
        <mxCell id="cowbU3c1tZKaxY06-JKs-78" style="edgeStyle=orthogonalEdgeStyle;rounded=0;orthogonalLoop=1;jettySize=auto;html=1;exitX=1;exitY=0.5;exitDx=0;exitDy=0;entryX=0;entryY=0.5;entryDx=0;entryDy=0;" edge="1" parent="1" source="cowbU3c1tZKaxY06-JKs-66" target="cowbU3c1tZKaxY06-JKs-72">
          <mxGeometry relative="1" as="geometry" />
        </mxCell>
        <mxCell id="cowbU3c1tZKaxY06-JKs-82" value="NO" style="edgeLabel;html=1;align=center;verticalAlign=middle;resizable=0;points=[];" vertex="1" connectable="0" parent="cowbU3c1tZKaxY06-JKs-78">
          <mxGeometry x="-0.2127" y="3" relative="1" as="geometry">
            <mxPoint as="offset" />
          </mxGeometry>
        </mxCell>
        <mxCell id="cowbU3c1tZKaxY06-JKs-66" value="Accept&amp;nbsp;&lt;div&gt;result?&lt;/div&gt;" style="rhombus;whiteSpace=wrap;html=1;" vertex="1" parent="1">
          <mxGeometry x="1652.5" y="149" width="80" height="80" as="geometry" />
        </mxCell>
        <mxCell id="cowbU3c1tZKaxY06-JKs-94" style="edgeStyle=orthogonalEdgeStyle;rounded=0;orthogonalLoop=1;jettySize=auto;html=1;exitX=1;exitY=0.5;exitDx=0;exitDy=0;entryX=1;entryY=0.5;entryDx=0;entryDy=0;dashed=1;dashPattern=8 8;" edge="1" parent="1" source="cowbU3c1tZKaxY06-JKs-72" target="cowbU3c1tZKaxY06-JKs-93">
          <mxGeometry relative="1" as="geometry" />
        </mxCell>
        <mxCell id="cowbU3c1tZKaxY06-JKs-72" value="" style="rounded=0;whiteSpace=wrap;html=1;strokeWidth=3;" vertex="1" parent="1">
          <mxGeometry x="1830" y="135" width="145" height="110" as="geometry" />
        </mxCell>
        <mxCell id="cowbU3c1tZKaxY06-JKs-73" value="" style="sketch=0;outlineConnect=0;fontColor=#232F3E;gradientColor=none;fillColor=#232F3D;strokeColor=none;dashed=0;verticalLabelPosition=bottom;verticalAlign=top;align=center;html=1;fontSize=12;fontStyle=0;aspect=fixed;pointerEvents=1;shape=mxgraph.aws4.document;strokeWidth=1;" vertex="1" parent="1">
          <mxGeometry x="1842.62" y="160" width="42.38" height="58" as="geometry" />
        </mxCell>
        <mxCell id="cowbU3c1tZKaxY06-JKs-74" value="original" style="text;html=1;align=center;verticalAlign=middle;whiteSpace=wrap;rounded=0;" vertex="1" parent="1">
          <mxGeometry x="1833.81" y="218" width="60" height="30" as="geometry" />
        </mxCell>
        <mxCell id="cowbU3c1tZKaxY06-JKs-75" value="HTML" style="text;html=1;align=center;verticalAlign=middle;whiteSpace=wrap;rounded=0;" vertex="1" parent="1">
          <mxGeometry x="1915" y="220" width="60" height="30" as="geometry" />
        </mxCell>
        <mxCell id="cowbU3c1tZKaxY06-JKs-76" value="" style="endArrow=none;dashed=1;html=1;rounded=0;exitX=0.5;exitY=1;exitDx=0;exitDy=0;entryX=0.5;entryY=0;entryDx=0;entryDy=0;" edge="1" parent="1" source="cowbU3c1tZKaxY06-JKs-72" target="cowbU3c1tZKaxY06-JKs-72">
          <mxGeometry width="50" height="50" relative="1" as="geometry">
            <mxPoint x="1855" y="190" as="sourcePoint" />
            <mxPoint x="1975" y="290" as="targetPoint" />
          </mxGeometry>
        </mxCell>
        <mxCell id="cowbU3c1tZKaxY06-JKs-81" value="" style="sketch=0;outlineConnect=0;fontColor=#232F3E;gradientColor=none;fillColor=#232F3D;strokeColor=none;dashed=0;verticalLabelPosition=bottom;verticalAlign=top;align=center;html=1;fontSize=12;fontStyle=0;aspect=fixed;pointerEvents=1;shape=mxgraph.aws4.document;strokeWidth=1;" vertex="1" parent="1">
          <mxGeometry x="1923.87" y="160" width="42.38" height="58" as="geometry" />
        </mxCell>
        <mxCell id="cowbU3c1tZKaxY06-JKs-87" style="edgeStyle=orthogonalEdgeStyle;rounded=0;orthogonalLoop=1;jettySize=auto;html=1;exitX=0.5;exitY=0;exitDx=0;exitDy=0;exitPerimeter=0;" edge="1" parent="1" source="cowbU3c1tZKaxY06-JKs-85">
          <mxGeometry relative="1" as="geometry">
            <mxPoint x="1902.5652173913045" y="250" as="targetPoint" />
          </mxGeometry>
        </mxCell>
        <mxCell id="cowbU3c1tZKaxY06-JKs-85" value="Fire Expert" style="shape=umlActor;verticalLabelPosition=bottom;verticalAlign=top;html=1;outlineConnect=0;" vertex="1" parent="1">
          <mxGeometry x="1887.5" y="270" width="30" height="60" as="geometry" />
        </mxCell>
        <mxCell id="cowbU3c1tZKaxY06-JKs-131" style="edgeStyle=orthogonalEdgeStyle;rounded=0;orthogonalLoop=1;jettySize=auto;html=1;exitX=0.5;exitY=0;exitDx=0;exitDy=0;exitPerimeter=0;entryX=0.5;entryY=1;entryDx=0;entryDy=0;" edge="1" parent="1" source="cowbU3c1tZKaxY06-JKs-88" target="cowbU3c1tZKaxY06-JKs-48">
          <mxGeometry relative="1" as="geometry" />
        </mxCell>
        <mxCell id="cowbU3c1tZKaxY06-JKs-88" value="BIM Expert" style="shape=umlActor;verticalLabelPosition=bottom;verticalAlign=top;html=1;outlineConnect=0;" vertex="1" parent="1">
          <mxGeometry x="1677.5" y="530" width="30" height="60" as="geometry" />
        </mxCell>
        <mxCell id="cowbU3c1tZKaxY06-JKs-104" style="edgeStyle=orthogonalEdgeStyle;rounded=0;orthogonalLoop=1;jettySize=auto;html=1;exitX=0.5;exitY=1;exitDx=0;exitDy=0;entryX=0.5;entryY=0;entryDx=0;entryDy=0;" edge="1" parent="1" source="cowbU3c1tZKaxY06-JKs-89" target="cowbU3c1tZKaxY06-JKs-103">
          <mxGeometry relative="1" as="geometry" />
        </mxCell>
        <mxCell id="cowbU3c1tZKaxY06-JKs-105" value="NO" style="edgeLabel;html=1;align=center;verticalAlign=middle;resizable=0;points=[];" vertex="1" connectable="0" parent="cowbU3c1tZKaxY06-JKs-104">
          <mxGeometry x="-0.0882" y="2" relative="1" as="geometry">
            <mxPoint as="offset" />
          </mxGeometry>
        </mxCell>
        <mxCell id="cowbU3c1tZKaxY06-JKs-115" style="edgeStyle=orthogonalEdgeStyle;rounded=0;orthogonalLoop=1;jettySize=auto;html=1;exitX=0;exitY=0.5;exitDx=0;exitDy=0;" edge="1" parent="1" source="cowbU3c1tZKaxY06-JKs-89">
          <mxGeometry relative="1" as="geometry">
            <mxPoint x="1410" y="444.8571428571431" as="targetPoint" />
          </mxGeometry>
        </mxCell>
        <mxCell id="cowbU3c1tZKaxY06-JKs-116" value="YES" style="edgeLabel;html=1;align=center;verticalAlign=middle;resizable=0;points=[];" vertex="1" connectable="0" parent="cowbU3c1tZKaxY06-JKs-115">
          <mxGeometry x="-0.1357" y="3" relative="1" as="geometry">
            <mxPoint as="offset" />
          </mxGeometry>
        </mxCell>
        <mxCell id="cowbU3c1tZKaxY06-JKs-89" value="Accept&amp;nbsp;&lt;div&gt;result?&lt;/div&gt;" style="rhombus;whiteSpace=wrap;html=1;" vertex="1" parent="1">
          <mxGeometry x="1477.5" y="405" width="80" height="80" as="geometry" />
        </mxCell>
        <mxCell id="cowbU3c1tZKaxY06-JKs-95" style="edgeStyle=orthogonalEdgeStyle;rounded=0;orthogonalLoop=1;jettySize=auto;html=1;entryX=0.5;entryY=0;entryDx=0;entryDy=0;" edge="1" parent="1" source="cowbU3c1tZKaxY06-JKs-92" target="cowbU3c1tZKaxY06-JKs-27">
          <mxGeometry relative="1" as="geometry" />
        </mxCell>
        <mxCell id="cowbU3c1tZKaxY06-JKs-92" value="" style="sketch=0;outlineConnect=0;fontColor=#232F3E;gradientColor=none;fillColor=#232F3D;strokeColor=none;dashed=0;verticalLabelPosition=bottom;verticalAlign=top;align=center;html=1;fontSize=12;fontStyle=0;aspect=fixed;pointerEvents=1;shape=mxgraph.aws4.document;strokeWidth=1;" vertex="1" parent="1">
          <mxGeometry x="1268.81" y="50" width="42.38" height="58" as="geometry" />
        </mxCell>
        <mxCell id="cowbU3c1tZKaxY06-JKs-93" value="Additional information from fire experts" style="text;html=1;align=center;verticalAlign=middle;whiteSpace=wrap;rounded=0;" vertex="1" parent="1">
          <mxGeometry x="1240" width="100" height="30" as="geometry" />
        </mxCell>
        <mxCell id="cowbU3c1tZKaxY06-JKs-96" value="Raw Fire Code text curated by Fire Experts" style="text;html=1;align=center;verticalAlign=middle;whiteSpace=wrap;rounded=0;" vertex="1" parent="1">
          <mxGeometry x="1094.25" y="240" width="88.5" height="30" as="geometry" />
        </mxCell>
        <mxCell id="cowbU3c1tZKaxY06-JKs-97" value="&lt;b&gt;STEP 1&lt;/b&gt;" style="text;html=1;align=center;verticalAlign=middle;whiteSpace=wrap;rounded=0;" vertex="1" parent="1">
          <mxGeometry x="1245.75" y="229" width="88.5" height="30" as="geometry" />
        </mxCell>
        <mxCell id="cowbU3c1tZKaxY06-JKs-98" value="&lt;b&gt;STEP 2&lt;/b&gt;" style="text;html=1;align=center;verticalAlign=middle;whiteSpace=wrap;rounded=0;" vertex="1" parent="1">
          <mxGeometry x="1435.75" y="100" width="88.5" height="30" as="geometry" />
        </mxCell>
        <mxCell id="cowbU3c1tZKaxY06-JKs-113" style="edgeStyle=orthogonalEdgeStyle;rounded=0;orthogonalLoop=1;jettySize=auto;html=1;exitX=0.5;exitY=0;exitDx=0;exitDy=0;entryX=1;entryY=0.5;entryDx=0;entryDy=0;" edge="1" parent="1" source="cowbU3c1tZKaxY06-JKs-99" target="cowbU3c1tZKaxY06-JKs-111">
          <mxGeometry relative="1" as="geometry" />
        </mxCell>
        <mxCell id="cowbU3c1tZKaxY06-JKs-99" value="&lt;b&gt;STEP 3&lt;/b&gt;" style="text;html=1;align=center;verticalAlign=middle;whiteSpace=wrap;rounded=0;fillColor=default;" vertex="1" parent="1">
          <mxGeometry x="1858.25" y="100" width="88.5" height="30" as="geometry" />
        </mxCell>
        <mxCell id="cowbU3c1tZKaxY06-JKs-101" value="&lt;b&gt;STEP 5&lt;/b&gt;" style="text;html=1;align=center;verticalAlign=middle;whiteSpace=wrap;rounded=0;fillColor=default;" vertex="1" parent="1">
          <mxGeometry x="1648.25" y="350" width="88.5" height="30" as="geometry" />
        </mxCell>
        <mxCell id="cowbU3c1tZKaxY06-JKs-103" value="Undecided" style="text;html=1;align=center;verticalAlign=middle;whiteSpace=wrap;rounded=0;" vertex="1" parent="1">
          <mxGeometry x="1487.5" y="530" width="60" height="30" as="geometry" />
        </mxCell>
        <mxCell id="cowbU3c1tZKaxY06-JKs-132" style="edgeStyle=orthogonalEdgeStyle;rounded=0;orthogonalLoop=1;jettySize=auto;html=1;exitX=0.5;exitY=1;exitDx=0;exitDy=0;entryX=0.5;entryY=0;entryDx=0;entryDy=0;" edge="1" parent="1" source="cowbU3c1tZKaxY06-JKs-106" target="cowbU3c1tZKaxY06-JKs-117">
          <mxGeometry relative="1" as="geometry" />
        </mxCell>
        <mxCell id="cowbU3c1tZKaxY06-JKs-106" value="RDF2RDF" style="rounded=1;whiteSpace=wrap;html=1;strokeWidth=3;" vertex="1" parent="1">
          <mxGeometry x="1286.31" y="415" width="120" height="60" as="geometry" />
        </mxCell>
        <mxCell id="cowbU3c1tZKaxY06-JKs-107" value="&lt;b&gt;STEP 6&lt;/b&gt;" style="text;html=1;align=center;verticalAlign=middle;whiteSpace=wrap;rounded=0;" vertex="1" parent="1">
          <mxGeometry x="1302.06" y="380" width="88.5" height="30" as="geometry" />
        </mxCell>
        <mxCell id="cowbU3c1tZKaxY06-JKs-114" style="edgeStyle=orthogonalEdgeStyle;rounded=0;orthogonalLoop=1;jettySize=auto;html=1;exitX=0;exitY=0.5;exitDx=0;exitDy=0;entryX=0.5;entryY=0;entryDx=0;entryDy=0;" edge="1" parent="1" source="cowbU3c1tZKaxY06-JKs-111" target="cowbU3c1tZKaxY06-JKs-66">
          <mxGeometry relative="1" as="geometry" />
        </mxCell>
        <mxCell id="cowbU3c1tZKaxY06-JKs-111" value="RASE2RDF" style="rounded=1;whiteSpace=wrap;html=1;strokeWidth=3;" vertex="1" parent="1">
          <mxGeometry x="1732.5" y="39.5" width="120" height="60" as="geometry" />
        </mxCell>
        <mxCell id="cowbU3c1tZKaxY06-JKs-112" value="&lt;b&gt;STEP 4&lt;/b&gt;" style="text;html=1;align=center;verticalAlign=middle;whiteSpace=wrap;rounded=0;" vertex="1" parent="1">
          <mxGeometry x="1748.25" y="105" width="88.5" height="30" as="geometry" />
        </mxCell>
        <mxCell id="cowbU3c1tZKaxY06-JKs-137" style="edgeStyle=orthogonalEdgeStyle;rounded=0;orthogonalLoop=1;jettySize=auto;html=1;exitX=1;exitY=0.5;exitDx=0;exitDy=0;entryX=0;entryY=0.5;entryDx=0;entryDy=0;" edge="1" parent="1" source="cowbU3c1tZKaxY06-JKs-117" target="cowbU3c1tZKaxY06-JKs-135">
          <mxGeometry relative="1" as="geometry" />
        </mxCell>
        <mxCell id="cowbU3c1tZKaxY06-JKs-117" value="" style="rounded=0;whiteSpace=wrap;html=1;strokeWidth=3;" vertex="1" parent="1">
          <mxGeometry x="1273.81" y="600" width="145" height="110" as="geometry" />
        </mxCell>
        <mxCell id="cowbU3c1tZKaxY06-JKs-118" value="RDF" style="text;html=1;align=center;verticalAlign=middle;whiteSpace=wrap;rounded=0;" vertex="1" parent="1">
          <mxGeometry x="1277.62" y="678" width="60" height="30" as="geometry" />
        </mxCell>
        <mxCell id="cowbU3c1tZKaxY06-JKs-119" value="IFC" style="text;html=1;align=center;verticalAlign=middle;whiteSpace=wrap;rounded=0;" vertex="1" parent="1">
          <mxGeometry x="1358.81" y="680" width="60" height="30" as="geometry" />
        </mxCell>
        <mxCell id="cowbU3c1tZKaxY06-JKs-120" value="" style="endArrow=none;dashed=1;html=1;rounded=0;exitX=0.5;exitY=1;exitDx=0;exitDy=0;entryX=0.5;entryY=0;entryDx=0;entryDy=0;" edge="1" parent="1" source="cowbU3c1tZKaxY06-JKs-117" target="cowbU3c1tZKaxY06-JKs-117">
          <mxGeometry width="50" height="50" relative="1" as="geometry">
            <mxPoint x="1298.81" y="650" as="sourcePoint" />
            <mxPoint x="1418.81" y="750" as="targetPoint" />
          </mxGeometry>
        </mxCell>
        <mxCell id="cowbU3c1tZKaxY06-JKs-121" value="" style="verticalLabelPosition=bottom;html=1;verticalAlign=top;align=center;shape=mxgraph.azure.rdp_remoting_file;pointerEvents=1;gradientColor=none;fillColor=#232F3D;strokeColor=none;" vertex="1" parent="1">
          <mxGeometry x="1286.37" y="620" width="42.5" height="55" as="geometry" />
        </mxCell>
        <mxCell id="cowbU3c1tZKaxY06-JKs-122" value="" style="group" vertex="1" connectable="0" parent="1">
          <mxGeometry x="1371.31" y="621.5" width="35" height="55" as="geometry" />
        </mxCell>
        <mxCell id="cowbU3c1tZKaxY06-JKs-123" value="" style="html=1;verticalLabelPosition=bottom;align=center;labelBackgroundColor=#ffffff;verticalAlign=top;strokeWidth=3;strokeColor=#232F3D;shadow=0;dashed=0;shape=mxgraph.ios7.icons.document;" vertex="1" parent="cowbU3c1tZKaxY06-JKs-122">
          <mxGeometry width="35" height="55" as="geometry" />
        </mxCell>
        <mxCell id="cowbU3c1tZKaxY06-JKs-124" value="" style="html=1;verticalLabelPosition=bottom;align=center;labelBackgroundColor=#ffffff;verticalAlign=top;strokeWidth=2;strokeColor=#232F3D;shadow=0;dashed=0;shape=mxgraph.ios7.icons.home;" vertex="1" parent="cowbU3c1tZKaxY06-JKs-122">
          <mxGeometry x="5.5" y="16.25" width="24" height="25.5" as="geometry" />
        </mxCell>
        <mxCell id="cowbU3c1tZKaxY06-JKs-129" style="edgeStyle=orthogonalEdgeStyle;rounded=0;orthogonalLoop=1;jettySize=auto;html=1;entryX=0.5;entryY=1;entryDx=0;entryDy=0;" edge="1" parent="1" source="cowbU3c1tZKaxY06-JKs-125" target="cowbU3c1tZKaxY06-JKs-117">
          <mxGeometry relative="1" as="geometry" />
        </mxCell>
        <mxCell id="cowbU3c1tZKaxY06-JKs-125" value="BIM Expert" style="shape=umlActor;verticalLabelPosition=bottom;verticalAlign=top;html=1;outlineConnect=0;" vertex="1" parent="1">
          <mxGeometry x="1331.31" y="740" width="30" height="60" as="geometry" />
        </mxCell>
        <mxCell id="cowbU3c1tZKaxY06-JKs-138" style="edgeStyle=orthogonalEdgeStyle;rounded=0;orthogonalLoop=1;jettySize=auto;html=1;exitX=0.5;exitY=0;exitDx=0;exitDy=0;entryX=0.5;entryY=1;entryDx=0;entryDy=0;" edge="1" parent="1" source="cowbU3c1tZKaxY06-JKs-135" target="cowbU3c1tZKaxY06-JKs-103">
          <mxGeometry relative="1" as="geometry" />
        </mxCell>
        <mxCell id="cowbU3c1tZKaxY06-JKs-139" value="NO" style="edgeLabel;html=1;align=center;verticalAlign=middle;resizable=0;points=[];" vertex="1" connectable="0" parent="cowbU3c1tZKaxY06-JKs-138">
          <mxGeometry x="0.0881" y="-2" relative="1" as="geometry">
            <mxPoint as="offset" />
          </mxGeometry>
        </mxCell>
        <mxCell id="cowbU3c1tZKaxY06-JKs-144" style="edgeStyle=orthogonalEdgeStyle;rounded=0;orthogonalLoop=1;jettySize=auto;html=1;exitX=1;exitY=0.5;exitDx=0;exitDy=0;entryX=0;entryY=0.5;entryDx=0;entryDy=0;" edge="1" parent="1" source="cowbU3c1tZKaxY06-JKs-135" target="cowbU3c1tZKaxY06-JKs-141">
          <mxGeometry relative="1" as="geometry" />
        </mxCell>
        <mxCell id="cowbU3c1tZKaxY06-JKs-135" value="Accept&amp;nbsp;&lt;div&gt;result?&lt;/div&gt;" style="rhombus;whiteSpace=wrap;html=1;" vertex="1" parent="1">
          <mxGeometry x="1477.5" y="615.5" width="80" height="80" as="geometry" />
        </mxCell>
        <mxCell id="cowbU3c1tZKaxY06-JKs-141" value="RDF2BSDD" style="rounded=1;whiteSpace=wrap;html=1;strokeWidth=3;" vertex="1" parent="1">
          <mxGeometry x="1846.25" y="625" width="120" height="60" as="geometry" />
        </mxCell>
        <mxCell id="cowbU3c1tZKaxY06-JKs-142" value="&lt;b&gt;STEP 8&lt;/b&gt;" style="text;html=1;align=center;verticalAlign=middle;whiteSpace=wrap;rounded=0;" vertex="1" parent="1">
          <mxGeometry x="1862" y="590" width="88.5" height="30" as="geometry" />
        </mxCell>
        <mxCell id="cowbU3c1tZKaxY06-JKs-143" value="&lt;b&gt;STEP 7&lt;/b&gt;" style="text;html=1;align=center;verticalAlign=middle;whiteSpace=wrap;rounded=0;fillColor=default;" vertex="1" parent="1">
          <mxGeometry x="1302.06" y="560" width="88.5" height="30" as="geometry" />
        </mxCell>
        <mxCell id="cowbU3c1tZKaxY06-JKs-145" value="FireBIM Authenticator" style="shape=umlActor;verticalLabelPosition=bottom;verticalAlign=top;html=1;outlineConnect=0;" vertex="1" parent="1">
          <mxGeometry x="1887.5" y="720" width="30" height="60" as="geometry" />
        </mxCell>
        <mxCell id="cowbU3c1tZKaxY06-JKs-146" style="edgeStyle=orthogonalEdgeStyle;rounded=0;orthogonalLoop=1;jettySize=auto;html=1;entryX=0.472;entryY=0.968;entryDx=0;entryDy=0;entryPerimeter=0;" edge="1" parent="1" source="cowbU3c1tZKaxY06-JKs-145" target="cowbU3c1tZKaxY06-JKs-141">
          <mxGeometry relative="1" as="geometry" />
        </mxCell>
      </root>
    </mxGraphModel>
  </diagram>
</mxfile>
